<?xml version="1.0" encoding="UTF-8"?>
<!DOCTYPE svg PUBLIC "-//W3C//DTD SVG 1.1//EN" "http://www.w3.org/Graphics/SVG/1.1/DTD/svg11.dtd">
<svg xmlns="http://www.w3.org/2000/svg" version="1.1" width="500px" height="123px" style="shape-rendering:geometricPrecision; text-rendering:geometricPrecision; image-rendering:optimizeQuality; fill-rule:evenodd; clip-rule:evenodd" xmlns:xlink="http://www.w3.org/1999/xlink">
<g><path style="opacity:0.82" fill="#000000" d="M 35.5,41.5 C 41.5,41.5 47.5,41.5 53.5,41.5C 53.5,43.8333 53.5,46.1667 53.5,48.5C 50.1667,48.5 46.8333,48.5 43.5,48.5C 43.5,50.1667 43.5,51.8333 43.5,53.5C 46.5,53.5 49.5,53.5 52.5,53.5C 52.5,55.8333 52.5,58.1667 52.5,60.5C 49.5,60.5 46.5,60.5 43.5,60.5C 43.5,64.1667 43.5,67.8333 43.5,71.5C 40.8333,71.5 38.1667,71.5 35.5,71.5C 35.5,61.5 35.5,51.5 35.5,41.5 Z"/></g>
<g><path style="opacity:0.802" fill="#000000" d="M 55.5,41.5 C 58.1667,41.5 60.8333,41.5 63.5,41.5C 63.5,51.5 63.5,61.5 63.5,71.5C 60.8333,71.5 58.1667,71.5 55.5,71.5C 55.5,61.5 55.5,51.5 55.5,41.5 Z"/></g>
<g><path style="opacity:0.859" fill="#000000" d="M 66.5,41.5 C 68.8568,41.3367 71.1902,41.5034 73.5,42C 77.3712,46.9072 80.8712,52.0739 84,57.5C 84.4994,52.1771 84.666,46.8437 84.5,41.5C 87.1667,41.5 89.8333,41.5 92.5,41.5C 92.5,51.5 92.5,61.5 92.5,71.5C 89.8127,71.6641 87.146,71.4974 84.5,71C 80.6288,66.0928 77.1288,60.9261 74,55.5C 73.5006,60.8229 73.334,66.1563 73.5,71.5C 71.1667,71.5 68.8333,71.5 66.5,71.5C 66.5,61.5 66.5,51.5 66.5,41.5 Z"/></g>
<g><path style="opacity:0.844" fill="#000000" d="M 95.5,41.5 C 102.174,40.9652 108.507,42.1319 114.5,45C 119.691,50.6901 120.858,57.1901 118,64.5C 116.833,67 115,68.8333 112.5,70C 106.956,71.4038 101.29,71.9038 95.5,71.5C 95.5,61.5 95.5,51.5 95.5,41.5 Z M 103.5,48.5 C 110.488,50.4761 112.655,54.8094 110,61.5C 108.468,63.5624 106.468,64.8957 104,65.5C 103.501,59.8431 103.334,54.1764 103.5,48.5 Z"/></g>
<g><path style="opacity:0.855" fill="#000000" d="M 132.5,41.5 C 135.167,41.5 137.833,41.5 140.5,41.5C 142.033,46.9076 143.866,52.2409 146,57.5C 148.196,52.5797 150.196,47.5797 152,42.5C 154.719,41.5562 157.552,41.2229 160.5,41.5C 161.106,51.5043 161.773,61.5043 162.5,71.5C 160.076,71.8076 157.743,71.4742 155.5,70.5C 154.726,66.2207 154.226,61.8874 154,57.5C 152.056,61.7225 150.389,66.0558 149,70.5C 147.186,71.7596 145.353,71.7596 143.5,70.5C 142.098,66.4612 140.598,62.4612 139,58.5C 137.71,62.7305 137.21,67.0638 137.5,71.5C 134.833,71.5 132.167,71.5 129.5,71.5C 130.38,61.4807 131.38,51.4807 132.5,41.5 Z"/></g>
<g><path style="opacity:0.802" fill="#000000" d="M 161.5,41.5 C 164.572,41.1826 167.572,41.5159 170.5,42.5C 172.138,45.3041 173.971,47.9708 176,50.5C 177.709,47.5815 179.542,44.7482 181.5,42C 184.554,41.1786 187.554,41.3452 190.5,42.5C 186.803,47.6981 183.303,53.0314 180,58.5C 179.501,62.8206 179.334,67.1539 179.5,71.5C 176.833,71.5 174.167,71.5 171.5,71.5C 171.666,66.8215 171.499,62.1548 171,57.5C 167.037,52.5626 163.87,47.2292 161.5,41.5 Z"/></g>
<g><path style="opacity:0.959" fill="#3196a9" d="M 200.5,41.5 C 213.78,38.952 221.78,44.1187 224.5,57C 224.265,63.8985 220.932,68.5652 214.5,71C 209.845,71.4992 205.179,71.6658 200.5,71.5C 200.5,61.5 200.5,51.5 200.5,41.5 Z M 207.5,48.5 C 215.375,50.6498 217.542,55.3165 214,62.5C 212.237,63.9437 210.237,64.9437 208,65.5C 207.501,59.8431 207.334,54.1764 207.5,48.5 Z"/></g>
<g><path style="opacity:0.942" fill="#3296a9" d="M 234.5,41.5 C 237.119,41.2317 239.619,41.565 242,42.5C 245.736,51.8736 249.569,61.207 253.5,70.5C 250.894,71.6517 248.227,71.8184 245.5,71C 244.833,69.6667 244.167,68.3333 243.5,67C 239.848,66.5014 236.182,66.3347 232.5,66.5C 232.579,67.9305 232.246,69.2638 231.5,70.5C 228.914,71.48 226.247,71.8134 223.5,71.5C 227.16,61.5105 230.827,51.5105 234.5,41.5 Z M 237.5,53.5 C 239.043,54.7358 240.043,56.4024 240.5,58.5C 239.311,59.4287 237.978,59.762 236.5,59.5C 236.833,57.5 237.167,55.5 237.5,53.5 Z"/></g>
<g><path style="opacity:0.946" fill="#3196a8" d="M 337.5,41.5 C 339.833,41.5 342.167,41.5 344.5,41.5C 344.5,51.5 344.5,61.5 344.5,71.5C 342.167,71.5 339.833,71.5 337.5,71.5C 337.5,61.5 337.5,51.5 337.5,41.5 Z"/></g>
<g><path style="opacity:0.936" fill="#3196a8" d="M 377.5,41.5 C 379.833,41.5 382.167,41.5 384.5,41.5C 384.5,45.5 384.5,49.5 384.5,53.5C 387.5,53.5 390.5,53.5 393.5,53.5C 393.5,49.5 393.5,45.5 393.5,41.5C 395.833,41.5 398.167,41.5 400.5,41.5C 400.5,51.5 400.5,61.5 400.5,71.5C 398.167,71.5 395.833,71.5 393.5,71.5C 393.5,67.8333 393.5,64.1667 393.5,60.5C 390.5,60.5 387.5,60.5 384.5,60.5C 384.5,64.1667 384.5,67.8333 384.5,71.5C 382.167,71.5 379.833,71.5 377.5,71.5C 377.5,61.5 377.5,51.5 377.5,41.5 Z"/></g>
<g><path style="opacity:0.941" fill="#3297a9" d="M 432.5,41.5 C 435.187,41.3359 437.854,41.5026 440.5,42C 446.46,43.3994 447.126,46.2327 442.5,50.5C 440.057,48.9447 437.39,48.278 434.5,48.5C 434.33,49.8221 434.663,50.9887 435.5,52C 438.912,53.4545 442.079,55.2879 445,57.5C 448.423,66.9845 445.09,71.9845 435,72.5C 430.521,72.5641 426.688,71.0641 423.5,68C 424.646,65.8562 426.146,64.0228 428,62.5C 430.135,63.8811 432.468,64.8811 435,65.5C 436.395,65.2196 437.562,64.5529 438.5,63.5C 434.615,60.6318 430.782,57.6318 427,54.5C 425.571,48.7001 427.404,44.3668 432.5,41.5 Z"/></g>
<g><path style="opacity:0.97" fill="#3195a8" d="M 251.5,41.5 C 258.833,41.5 266.167,41.5 273.5,41.5C 273.5,43.8333 273.5,46.1667 273.5,48.5C 271.167,48.5 268.833,48.5 266.5,48.5C 266.5,56.1667 266.5,63.8333 266.5,71.5C 263.833,71.5 261.167,71.5 258.5,71.5C 258.5,63.8333 258.5,56.1667 258.5,48.5C 256.167,48.5 253.833,48.5 251.5,48.5C 251.5,46.1667 251.5,43.8333 251.5,41.5 Z"/></g>
<g><path style="opacity:0.944" fill="#3296a9" d="M 283.5,41.5 C 285.924,41.1924 288.257,41.5258 290.5,42.5C 294.095,52.1879 298.095,61.6879 302.5,71C 299.446,71.8214 296.446,71.6548 293.5,70.5C 292.754,69.2638 292.421,67.9305 292.5,66.5C 288.774,66.1774 285.107,66.5108 281.5,67.5C 280.96,68.7481 280.293,69.9148 279.5,71C 276.773,71.8184 274.106,71.6517 271.5,70.5C 275.791,60.9219 279.791,51.2552 283.5,41.5 Z M 286.5,53.5 C 287.391,55.2905 288.391,57.1239 289.5,59C 287.741,59.7975 286.074,59.6309 284.5,58.5C 285.456,56.9246 286.123,55.258 286.5,53.5 Z"/></g>
<g><path style="opacity:0.966" fill="#3196a8" d="M 311.5,41.5 C 317.232,41.2832 322.899,41.7832 328.5,43C 332.327,46.3077 333.494,50.4744 332,55.5C 330.833,57.3333 329.333,58.8333 327.5,60C 330.5,63.6667 333.5,67.3333 336.5,71C 333.167,71.6667 329.833,71.6667 326.5,71C 324.333,68.1667 322.167,65.3333 320,62.5C 319.502,65.4816 319.335,68.4816 319.5,71.5C 316.833,71.5 314.167,71.5 311.5,71.5C 311.5,61.5 311.5,51.5 311.5,41.5 Z M 319.5,48.5 C 324.159,48.0146 325.492,49.848 323.5,54C 322.207,54.49 320.873,54.6567 319.5,54.5C 319.5,52.5 319.5,50.5 319.5,48.5 Z"/></g>
<g><path style="opacity:0.961" fill="#3296a9" d="M 356.5,41.5 C 361.449,40.9589 366.116,41.7922 370.5,44C 371.574,44.7387 372.241,45.7387 372.5,47C 371.392,49.1124 369.892,50.9458 368,52.5C 361.148,46.3464 356.648,47.8464 354.5,57C 354.854,61.577 357.187,64.4103 361.5,65.5C 369.716,62.0734 369.382,60.4067 360.5,60.5C 360.5,58.5 360.5,56.5 360.5,54.5C 365.5,54.5 370.5,54.5 375.5,54.5C 376.543,65.1251 371.876,71.1251 361.5,72.5C 353.917,72.4131 349.084,68.7464 347,61.5C 345.112,52.2925 348.279,45.6258 356.5,41.5 Z"/></g>
<g><path style="opacity:0.958" fill="#3196a8" d="M 402.5,41.5 C 409.5,41.5 416.5,41.5 423.5,41.5C 423.5,43.8333 423.5,46.1667 423.5,48.5C 421.167,48.5 418.833,48.5 416.5,48.5C 416.5,56.1667 416.5,63.8333 416.5,71.5C 414.167,71.5 411.833,71.5 409.5,71.5C 409.5,63.8333 409.5,56.1667 409.5,48.5C 407.167,48.5 404.833,48.5 402.5,48.5C 402.5,46.1667 402.5,43.8333 402.5,41.5 Z"/></g>
</svg>
