<?xml version="1.0" encoding="UTF-8"?>
<!DOCTYPE svg PUBLIC "-//W3C//DTD SVG 1.1//EN" "http://www.w3.org/Graphics/SVG/1.1/DTD/svg11.dtd">
<svg xmlns="http://www.w3.org/2000/svg" version="1.1" width="499px" height="92px" style="shape-rendering:geometricPrecision; text-rendering:geometricPrecision; image-rendering:optimizeQuality; fill-rule:evenodd; clip-rule:evenodd" xmlns:xlink="http://www.w3.org/1999/xlink">
<g><path style="opacity:1" fill="#f3f4f4" d="M -0.5,-0.5 C 165.833,-0.5 332.167,-0.5 498.5,-0.5C 498.5,30.1667 498.5,60.8333 498.5,91.5C 332.167,91.5 165.833,91.5 -0.5,91.5C -0.5,60.8333 -0.5,30.1667 -0.5,-0.5 Z"/></g>
<g><path style="opacity:1" fill="#000000" d="M 51.5,30.5 C 51.5,32.1667 51.5,33.8333 51.5,35.5C 47.9581,35.1872 44.6248,35.5206 41.5,36.5C 41.5,38.5 41.5,40.5 41.5,42.5C 44.5,42.5 47.5,42.5 50.5,42.5C 50.5,44.1667 50.5,45.8333 50.5,47.5C 47.5,47.5 44.5,47.5 41.5,47.5C 41.5,51.5 41.5,55.5 41.5,59.5C 39.5,59.5 37.5,59.5 35.5,59.5C 35.5,49.8333 35.5,40.1667 35.5,30.5C 40.8333,30.5 46.1667,30.5 51.5,30.5 Z"/></g>
<g><path style="opacity:1" fill="#050505" d="M 55.5,30.5 C 57.5,30.5 59.5,30.5 61.5,30.5C 62.4257,36.5899 61.0924,41.9232 57.5,46.5C 61.2848,50.0753 62.2848,54.4086 60.5,59.5C 59.1667,51.5 57.8333,51.5 56.5,59.5C 55.5016,49.8563 55.1682,40.1896 55.5,30.5 Z"/></g>
<g><path style="opacity:1" fill="#0e0e0e" d="M 82.5,46.5 C 82.7828,47.2891 83.2828,47.9558 84,48.5C 84.4995,42.5092 84.6662,36.5092 84.5,30.5C 86.5,30.5 88.5,30.5 90.5,30.5C 89.6887,40.1384 89.6887,49.8051 90.5,59.5C 88.076,59.8076 85.7427,59.4742 83.5,58.5C 80.2487,52.9956 76.7487,47.6622 73,42.5C 72.5006,48.1569 72.3339,53.8236 72.5,59.5C 70.1667,59.5 67.8333,59.5 65.5,59.5C 65.5,49.8333 65.5,40.1667 65.5,30.5C 67.8568,30.3367 70.1902,30.5034 72.5,31C 75.9685,36.1099 79.3018,41.2766 82.5,46.5 Z"/></g>
<g><path style="opacity:1" fill="#919191" d="M 84.5,30.5 C 84.6662,36.5092 84.4995,42.5092 84,48.5C 83.2828,47.9558 82.7828,47.2891 82.5,46.5C 83.1667,41.1667 83.8333,35.8333 84.5,30.5 Z"/></g>
<g><path style="opacity:1" fill="#0a0a0a" d="M 131.5,30.5 C 134.119,30.2317 136.619,30.565 139,31.5C 141.196,36.4203 143.196,41.4203 145,46.5C 147.076,41.3489 149.41,36.3489 152,31.5C 154.912,29.995 157.245,30.6616 159,33.5C 160.145,42.1299 160.645,50.7966 160.5,59.5C 158.5,59.5 156.5,59.5 154.5,59.5C 154.789,53.7551 154.289,48.0884 153,42.5C 151.136,47.0907 149.47,51.7574 148,56.5C 147.577,57.9561 146.744,58.4561 145.5,58C 144.421,57.044 143.255,56.2106 142,55.5C 140.716,50.9763 139.05,46.643 137,42.5C 136.667,44.8333 136.333,47.1667 136,49.5C 134.515,46.7003 132.849,44.0336 131,41.5C 131.337,37.9206 131.504,34.254 131.5,30.5 Z"/></g>
<g><path style="opacity:1" fill="#080808" d="M 178.5,46.5 C 177.989,49.963 176.989,53.2963 175.5,56.5C 174.206,57.2899 173.039,58.2899 172,59.5C 171.667,54.8333 171.333,50.1667 171,45.5C 168.451,42.235 166.284,38.735 164.5,35C 164.639,33.699 165.305,32.8656 166.5,32.5C 167.279,30.0728 168.446,30.0728 170,32.5C 171.937,36.4351 174.604,39.7684 178,42.5C 178.49,43.7932 178.657,45.1266 178.5,46.5 Z"/></g>
<g><path style="opacity:1" fill="#0d0d0d" d="M 180.5,30.5 C 183.187,30.3359 185.854,30.5026 188.5,31C 186.667,33.5 184.833,36 183,38.5C 180.198,36.2819 179.364,33.6152 180.5,30.5 Z"/></g>
<g><path style="opacity:1" fill="#3999ab" d="M 199.5,30.5 C 208.083,28.7933 215.25,31.1266 221,37.5C 224.972,47.9375 221.806,55.1041 211.5,59C 207.514,59.4988 203.514,59.6655 199.5,59.5C 199.334,51.4931 199.5,43.4931 200,35.5C 206.066,39.9511 208.233,45.9511 206.5,53.5C 212.473,53.5266 215.473,50.5266 215.5,44.5C 215.015,39.0155 212.015,36.3489 206.5,36.5C 206.649,37.552 206.483,38.552 206,39.5C 202.774,37.1311 200.608,34.1311 199.5,30.5 Z"/></g>
<g><path style="opacity:1" fill="#3c9aac" d="M 233.5,30.5 C 234.5,30.5 235.5,30.5 236.5,30.5C 235.893,34.9028 237.56,36.2361 241.5,34.5C 241.833,35.1667 242.167,35.8333 242.5,36.5C 241.214,38.2901 239.714,39.9568 238,41.5C 237.667,41.1667 237.333,40.8333 237,40.5C 236.03,42.2738 235.196,44.1072 234.5,46C 235.33,47.4651 235.496,48.9651 235,50.5C 232.581,52.7543 230.748,55.421 229.5,58.5C 227.926,59.6309 226.259,59.7975 224.5,59C 223.978,58.4387 223.645,57.772 223.5,57C 227.27,48.2999 230.603,39.4665 233.5,30.5 Z"/></g>
<g><path style="opacity:1" fill="#3798aa" d="M 256.5,30.5 C 261.5,30.5 266.5,30.5 271.5,30.5C 271.5,32.5 271.5,34.5 271.5,36.5C 269.167,36.5 266.833,36.5 264.5,36.5C 264.5,44.1667 264.5,51.8333 264.5,59.5C 262.5,59.5 260.5,59.5 258.5,59.5C 258.5,51.8333 258.5,44.1667 258.5,36.5C 256.143,36.6633 253.81,36.4966 251.5,36C 253.373,34.2962 255.04,32.4628 256.5,30.5 Z"/></g>
<g><path style="opacity:1" fill="#3d9aac" d="M 311.5,30.5 C 316.051,30.6273 320.718,30.794 325.5,31C 333.393,36.5808 333.393,42.2475 325.5,48C 328.382,51.5931 331.382,55.0931 334.5,58.5C 331.894,59.6517 329.227,59.8184 326.5,59C 324,55.8333 321.5,52.6667 319,49.5C 318.502,52.8168 318.335,56.1501 318.5,59.5C 316.167,59.5 313.833,59.5 311.5,59.5C 311.5,49.8333 311.5,40.1667 311.5,30.5 Z"/></g>
<g><path style="opacity:1" fill="#419bad" d="M 356.5,29.5 C 362.399,29.0523 367.399,30.8856 371.5,35C 370,36.5 368.5,38 367,39.5C 366.167,38.6667 365.333,37.8333 364.5,37C 361.22,36.944 358.22,36.1107 355.5,34.5C 354.098,34.8655 353.098,35.6988 352.5,37C 353.23,40.7938 353.73,44.6272 354,48.5C 356.544,51.8473 357.044,55.514 355.5,59.5C 352.906,58.4078 350.739,56.7411 349,54.5C 348.351,51.0602 347.518,47.7268 346.5,44.5C 348.296,41.483 349.463,38.1497 350,34.5C 351.965,32.4497 354.132,30.783 356.5,29.5 Z"/></g>
<g><path style="opacity:1" fill="#3e9aad" d="M 374.5,30.5 C 381.5,30.5 388.5,30.5 395.5,30.5C 395.5,32.5 395.5,34.5 395.5,36.5C 393.167,36.5 390.833,36.5 388.5,36.5C 388.666,40.8461 388.499,45.1794 388,49.5C 385.989,46.9079 384.156,47.0746 382.5,50C 383.53,53.2287 385.196,56.0621 387.5,58.5C 385.604,59.4656 383.604,59.7989 381.5,59.5C 381.5,51.8333 381.5,44.1667 381.5,36.5C 379.167,36.5 376.833,36.5 374.5,36.5C 374.5,34.5 374.5,32.5 374.5,30.5 Z"/></g>
<g><path style="opacity:1" fill="#419cad" d="M 397.5,30.5 C 399.833,30.5 402.167,30.5 404.5,30.5C 404.5,34.1667 404.5,37.8333 404.5,41.5C 407.5,41.5 410.5,41.5 413.5,41.5C 413.5,37.8333 413.5,34.1667 413.5,30.5C 416.325,30.1616 418.492,31.1616 420,33.5C 420.5,42.1603 420.666,50.8269 420.5,59.5C 418.167,59.5 415.833,59.5 413.5,59.5C 413.5,55.5 413.5,51.5 413.5,47.5C 410.5,47.5 407.5,47.5 404.5,47.5C 404.5,49.8333 404.5,52.1667 404.5,54.5C 400.544,55.0527 400.544,55.8861 404.5,57C 402.19,57.4966 399.857,57.6633 397.5,57.5C 397.5,48.5 397.5,39.5 397.5,30.5 Z"/></g>
<g><path style="opacity:1" fill="#6b6b6b" d="M 94.5,30.5 C 96.9732,30.9473 97.1399,31.9473 95,33.5C 94.5172,32.552 94.3505,31.552 94.5,30.5 Z"/></g>
<g><path style="opacity:1" fill="#0d0d0d" d="M 99.5,31.5 C 103.119,32.1858 106.785,32.3524 110.5,32C 119.257,37.5885 120.423,44.4218 114,52.5C 109.447,58.9132 103.28,61.2466 95.5,59.5C 95.739,53.2545 95.9056,46.9211 96,40.5C 97.1825,37.4744 98.3492,34.4744 99.5,31.5 Z"/></g>
<g><path style="opacity:1" fill="#479eaf" d="M 428.5,31.5 C 433.447,31.5028 434.78,33.8362 432.5,38.5C 435.538,41.2751 436.538,44.6084 435.5,48.5C 425.586,45.6941 423.252,40.0275 428.5,31.5 Z"/></g>
<g><path style="opacity:1" fill="#e7e7e7" d="M 86.5,32.5 C 89.9571,32.6672 90.2904,33.6672 87.5,35.5C 86.6143,34.675 86.281,33.675 86.5,32.5 Z"/></g>
<g><path style="opacity:1" fill="#3f9bad" d="M 288.5,30.5 C 292.67,39.6504 296.67,48.9838 300.5,58.5C 295.707,60.75 292.707,59.4166 291.5,54.5C 287.878,53.3414 284.211,53.1747 280.5,54C 279.74,55.4411 279.074,56.9411 278.5,58.5C 277.675,59.3857 276.675,59.719 275.5,59.5C 275.679,57.0459 275.013,54.8792 273.5,53C 275.362,48.1095 277.362,43.2762 279.5,38.5C 285.013,38.6533 288.013,35.9867 288.5,30.5 Z"/></g>
<g><path style="opacity:1" fill="#b7b7b7" d="M 166.5,32.5 C 168.337,32.6395 168.67,33.3061 167.5,34.5C 166.702,34.0431 166.369,33.3764 166.5,32.5 Z"/></g>
<g><path style="opacity:1" fill="#555555" d="M 51.5,30.5 C 52.4614,32.2646 52.7947,34.2646 52.5,36.5C 49.1667,36.5 45.8333,36.5 42.5,36.5C 42.1667,36.5 41.8333,36.5 41.5,36.5C 44.6248,35.5206 47.9581,35.1872 51.5,35.5C 51.5,33.8333 51.5,32.1667 51.5,30.5 Z"/></g>
<g><path style="opacity:1" fill="#e8e8e8" d="M 107.5,35.5 C 108.5,35.5 109.5,35.5 110.5,35.5C 110.272,40.0706 110.105,44.7373 110,49.5C 107.859,52.3208 105.025,53.6541 101.5,53.5C 101.5,47.8333 101.5,42.1667 101.5,36.5C 103.735,36.7947 105.735,36.4614 107.5,35.5 Z"/></g>
<g><path style="opacity:1" fill="#e8eff0" d="M 318.5,36.5 C 323.667,35.4919 325.334,37.3252 323.5,42C 321.975,43.0086 320.308,43.5086 318.5,43.5C 318.5,41.1667 318.5,38.8333 318.5,36.5 Z"/></g>
<g><path style="opacity:1" fill="#489fb0" d="M 341.5,35.5 C 343.427,38.1368 343.927,41.1368 343,44.5C 341.692,42.3586 340.192,40.3586 338.5,38.5C 339.77,37.7124 340.77,36.7124 341.5,35.5 Z"/></g>
<g><path style="opacity:1" fill="#979797" d="M 41.5,36.5 C 41.8333,36.5 42.1667,36.5 42.5,36.5C 42.5,38.1667 42.5,39.8333 42.5,41.5C 45.5,41.5 48.5,41.5 51.5,41.5C 51.5,43.8333 51.5,46.1667 51.5,48.5C 48.5,48.5 45.5,48.5 42.5,48.5C 42.815,52.3714 42.4816,56.0381 41.5,59.5C 41.5,55.5 41.5,51.5 41.5,47.5C 44.5,47.5 47.5,47.5 50.5,47.5C 50.5,45.8333 50.5,44.1667 50.5,42.5C 47.5,42.5 44.5,42.5 41.5,42.5C 41.5,40.5 41.5,38.5 41.5,36.5 Z"/></g>
<g><path style="opacity:1" fill="#eef1f2" d="M 285.5,40.5 C 286.864,42.22 287.864,44.22 288.5,46.5C 286.955,47.4519 285.288,47.7852 283.5,47.5C 283.767,45.0347 284.434,42.7014 285.5,40.5 Z"/></g>
<g><path style="opacity:1" fill="#3b99ab" d="M 244.5,43.5 C 246.136,44.7489 247.303,46.4156 248,48.5C 249.674,52.0207 250.84,55.6873 251.5,59.5C 249.167,59.5 246.833,59.5 244.5,59.5C 244.338,54.4416 241.671,52.1082 236.5,52.5C 239.218,49.4546 241.884,46.4546 244.5,43.5 Z"/></g>
<g><path style="opacity:1" fill="#3998ab" d="M 361.5,43.5 C 365.5,43.5 369.5,43.5 373.5,43.5C 374.579,49.9998 372.413,54.9998 367,58.5C 366.167,56.8333 365.333,55.1667 364.5,53.5C 365.95,52.1502 366.617,50.4835 366.5,48.5C 362.849,48.8383 361.183,47.1716 361.5,43.5 Z"/></g>
<g><path style="opacity:1" fill="#3e9bad" d="M 336.5,41.5 C 341.042,46.5929 343.375,52.5929 343.5,59.5C 341.167,59.5 338.833,59.5 336.5,59.5C 336.5,53.5 336.5,47.5 336.5,41.5 Z"/></g>
<g><path style="opacity:1" fill="#737373" d="M 178.5,46.5 C 178.5,49.8333 178.5,53.1667 178.5,56.5C 177.5,56.5 176.5,56.5 175.5,56.5C 176.989,53.2963 177.989,49.963 178.5,46.5 Z"/></g>
<g><path style="opacity:1" fill="#419cae" d="M 443.5,48.5 C 445.006,51.4692 444.673,54.3025 442.5,57C 441.4,57.4317 440.733,56.9317 440.5,55.5C 439.954,53.8653 439.62,52.1986 439.5,50.5C 441.38,50.7709 442.713,50.1042 443.5,48.5 Z"/></g>
<g><path style="opacity:1" fill="#429cae" d="M 425.5,51.5 C 429.036,52.7579 432.703,53.5913 436.5,54C 437.406,55.6995 437.739,57.5328 437.5,59.5C 433.532,59.7375 429.532,59.2375 425.5,58C 423.227,55.9621 423.227,53.7955 425.5,51.5 Z"/></g>
<g><path style="opacity:1" fill="#070707" d="M 129.5,52.5 C 133.541,53.1669 135.541,55.5003 135.5,59.5C 133.5,59.5 131.5,59.5 129.5,59.5C 129.5,57.1667 129.5,54.8333 129.5,52.5 Z"/></g>
</svg>
